<?xml version="1.0" encoding="utf-8"?>
<!-- Generator: Adobe Illustrator 25.2.3, SVG Export Plug-In . SVG Version: 6.00 Build 0)  -->
<svg version="1.1" id="Layer_1" xmlns="http://www.w3.org/2000/svg" xmlns:xlink="http://www.w3.org/1999/xlink" x="0px" y="0px"
	 viewBox="0 0 48 48" style="enable-background:new 0 0 48 48;" xml:space="preserve">
<style type="text/css">
	.st0{fill:#9497B8;}
</style>
<g>
	<path class="st0" d="M42.1,27.3c-0.1,0.3-0.2,0.7-0.3,1c-0.6,1.9-2.4,3.2-4.4,3.3c-0.5,0-1.1,0-1.6,0c-0.7,0-1.2-0.4-1.2-1.2
		c0-3,0-6,0-9c0-1.3,0-2.6-0.2-3.8c-0.9-4.4-4.6-7.8-9.1-8.3c-5.3-0.6-10.1,2.7-11.5,7.9c-0.2,0.9-0.3,1.9-0.3,2.8
		c0,3.4,0,6.9,0,10.3c0,0.9-0.3,1.3-1.1,1.4c-2.1,0.2-3.9-0.2-5.3-1.9c-0.7-0.9-1-1.9-1-3c0-1,0-2,0-3c0-2.7,2.1-4.9,4.9-5
		c0.3,0,0.4-0.1,0.4-0.4c0.4-3.6,2.1-6.6,5-8.8c7.2-5.5,17.6-2,20.1,6.7c0.2,0.7,0.4,1.4,0.4,2.2c0,0.2,0.1,0.3,0.3,0.3
		c2.9,0,4.7,2.1,5,4.3c0,0,0,0.1,0,0.1C42.1,24.5,42.1,25.9,42.1,27.3z"/>
	<path class="st0" d="M24,41c-0.5,0-0.9,0-1.4,0c-1.3,0-2.2-1-2.2-2.3c0-1.2,1-2.2,2.2-2.3c1,0,1.9,0,2.9,0c1.2,0,2.2,1,2.2,2.3
		c0,1.2-1,2.2-2.2,2.3C24.9,41,24.5,41,24,41z"/>
	<path class="st0" d="M18.3,39.4c-3.6,0-6.7-2.5-7.5-6.1c-0.1-0.3,0-0.4,0.3-0.4c0.3,0,0.6-0.1,0.9,0c0.2,0.1,0.2,0.5,0.3,0.8
		c0.8,2.5,3.2,4.3,5.8,4.3c0.3,0,0.8-0.1,1,0.1c0.2,0.2,0,0.6,0.1,0.9c0.1,0.3,0,0.3-0.3,0.3C18.6,39.4,18.4,39.4,18.3,39.4z"/>
</g>
</svg>
