<svg xmlns="http://www.w3.org/2000/svg" viewBox="0 0 1130.08 209.24"><defs><style>.cls-1,.cls-2{fill:none;stroke:#fff;stroke-miterlimit:10;opacity:0.2;}.cls-1{stroke-width:0.25px;}.cls-2{stroke-width:0.5px;}</style></defs><g id="Layer_2" data-name="Layer 2"><g id="Layer_1-2" data-name="Layer 1"><path id="Path_21" data-name="Path 21" class="cls-1" d="M50.33,103.89A96.25,96.25,0,0,0,77,112c8.1,1,24.48,1.14,38.36-3.73,16.16-5.66,29.67-16.86,34.44-21.87,20.11-21.11,22.75-46,22.75-46"/><path id="Path_22" data-name="Path 22" class="cls-1" d="M84.63,67.31s11.71-19.94,30-35A140.1,140.1,0,0,1,163.43,6.05,125.33,125.33,0,0,1,204.36.29a159.32,159.32,0,0,1,24.26,2.36,140.23,140.23,0,0,1,18.46,4.8"/><path id="Path_23" data-name="Path 23" class="cls-1" d="M407.3,9A96.25,96.25,0,0,0,380.62.84c-8.1-1-24.48-1.15-38.36,3.72-16.16,5.67-29.67,16.87-34.44,21.88-20.11,21.1-22.74,46-22.74,46"/><path id="Path_24" data-name="Path 24" class="cls-1" d="M373,45.54s-11.71,19.94-30,35a139.91,139.91,0,0,1-48.77,26.22,125.08,125.08,0,0,1-40.93,5.77A158.06,158.06,0,0,1,229,110.19a141.77,141.77,0,0,1-18.46-4.79"/><path id="Path_25" data-name="Path 25" class="cls-1" d="M333.08,103.89A96.25,96.25,0,0,0,359.76,112c8.1,1,24.48,1.14,38.36-3.73,16.15-5.66,29.67-16.86,34.44-21.87,20.11-21.11,22.74-46,22.74-46"/><path id="Path_26" data-name="Path 26" class="cls-1" d="M689.58,9A96.35,96.35,0,0,0,662.9.84c-8.1-1-24.49-1.15-38.36,3.72-16.16,5.67-29.67,16.87-34.44,21.88-20.11,21.11-22.74,46-22.74,46"/><path id="Path_27" data-name="Path 27" class="cls-1" d="M655.28,45.54s-11.72,19.94-30,35a139.87,139.87,0,0,1-48.78,26.22,125,125,0,0,1-40.92,5.77,157.82,157.82,0,0,1-24.26-2.36,141.5,141.5,0,0,1-18.47-4.79"/><path id="Path_28" data-name="Path 28" class="cls-1" d="M615.36,103.89A96.29,96.29,0,0,0,642,112c8.1,1,24.49,1.14,38.37-3.73,16.15-5.66,29.66-16.86,34.44-21.87,20.1-21.11,22.74-46,22.74-46"/><path id="Path_29" data-name="Path 29" class="cls-1" d="M649.66,67.31s11.71-19.94,30-35A139.93,139.93,0,0,1,728.46,6.06,125.05,125.05,0,0,1,769.38.29a159.08,159.08,0,0,1,24.26,2.36,140,140,0,0,1,18.47,4.8"/><path id="Path_30" data-name="Path 30" class="cls-1" d="M640.47,50.31c-13.27,2.62-28.62,10.43-28.62,10.43-4.89-11.5-9.11-16.09-15.2-21.39a49.11,49.11,0,0,0-17-9.68,72.94,72.94,0,0,0-12.62-3l1.1-.09C590.69,23.87,601.87,9,601.87,9V9A96.25,96.25,0,0,0,575.19.84c-8.1-1-24.48-1.15-38.36,3.72-16.15,5.67-29.67,16.87-34.44,21.88-15.24,16-21.61,36.47-23.23,44.34"/><path id="Path_31" data-name="Path 31" class="cls-1" d="M969.59,9A96.25,96.25,0,0,0,942.91.84c-8.1-1-24.48-1.15-38.36,3.72-16.16,5.67-29.67,16.87-34.44,21.88-20.11,21.1-22.74,46-22.74,46"/><path id="Path_32" data-name="Path 32" class="cls-1" d="M935.29,45.54s-11.71,19.94-30,35a139.91,139.91,0,0,1-48.77,26.22,125.35,125.35,0,0,1-40.93,5.78,160.35,160.35,0,0,1-24.26-2.36,141.5,141.5,0,0,1-18.47-4.79"/><path id="Path_33" data-name="Path 33" class="cls-1" d="M895.37,103.89A96.25,96.25,0,0,0,922.05,112c8.1,1,24.48,1.14,38.36-3.73,16.15-5.66,29.67-16.86,34.44-21.87,20.11-21.11,22.74-46,22.74-46"/><path id="Path_34" data-name="Path 34" class="cls-2" d="M367.38,67.31s11.71-19.94,30-35A139.93,139.93,0,0,1,446.18,6.06,125.08,125.08,0,0,1,487.11.29a159.32,159.32,0,0,1,24.26,2.36,140.23,140.23,0,0,1,18.46,4.8"/><path id="Path_35" data-name="Path 35" class="cls-2" d="M358.2,50.31c-13.27,2.62-28.63,10.43-28.63,10.43-4.88-11.5-9.11-16.09-15.2-21.39a49,49,0,0,0-17-9.68,72.94,72.94,0,0,0-12.62-3l1.1-.09C308.41,23.87,319.59,9,319.59,9V9A96.29,96.29,0,0,0,292.92.84c-8.1-1-24.49-1.15-38.37,3.72-16.15,5.67-29.66,16.87-34.43,21.88-15.25,16-21.62,36.47-23.24,44.34"/><path id="Path_36" data-name="Path 36" class="cls-2" d="M285.29,45.54s-11.71,19.94-30,35a139.91,139.91,0,0,1-48.77,26.22,125.08,125.08,0,0,1-40.93,5.77,157.81,157.81,0,0,1-24.25-2.36,141.5,141.5,0,0,1-18.47-4.79"/><path id="Path_37" data-name="Path 37" class="cls-2" d="M567.57,45.54s-11.71,19.94-30,35a139.91,139.91,0,0,1-48.77,26.22,125.08,125.08,0,0,1-40.93,5.77,158.06,158.06,0,0,1-24.26-2.36,141.77,141.77,0,0,1-18.46-4.79"/><path id="Path_38" data-name="Path 38" class="cls-2" d="M929.67,67.31s11.71-19.94,30-35a139.93,139.93,0,0,1,48.77-26.23A125.08,125.08,0,0,1,1049.4.29a159.32,159.32,0,0,1,24.26,2.36,140.23,140.23,0,0,1,18.46,4.8"/><path id="Path_39" data-name="Path 39" class="cls-2" d="M920.49,50.31c-13.27,2.62-28.63,10.43-28.63,10.43-4.88-11.5-9.11-16.09-15.2-21.39a49,49,0,0,0-17-9.68,72.94,72.94,0,0,0-12.62-3l1.1-.09C870.7,23.87,881.88,9,881.88,9V9A96.18,96.18,0,0,0,855.21.84c-8.1-1-24.49-1.15-38.37,3.72-16.15,5.67-29.66,16.87-34.43,21.88-15.25,16-21.61,36.47-23.24,44.34"/><path id="Path_40" data-name="Path 40" class="cls-2" d="M847.59,45.54s-11.72,19.94-30,35a139.91,139.91,0,0,1-48.77,26.22,125.08,125.08,0,0,1-40.93,5.77,157.81,157.81,0,0,1-24.25-2.36,141.5,141.5,0,0,1-18.47-4.79"/><path id="Path_41" data-name="Path 41" class="cls-2" d="M1129.86,45.54s-11.71,19.94-30,35a139.91,139.91,0,0,1-48.77,26.22,125.08,125.08,0,0,1-40.93,5.77,158.06,158.06,0,0,1-24.26-2.36,141.77,141.77,0,0,1-18.46-4.79"/><path id="Path_42" data-name="Path 42" class="cls-1" d="M210.66,105.35A96.18,96.18,0,0,0,184,97.23c-8.1-1-24.49-1.14-38.37,3.73-16.15,5.66-29.66,16.86-34.43,21.87-20.11,21.11-22.75,46.05-22.75,46.05"/><path id="Path_43" data-name="Path 43" class="cls-1" d="M176.37,141.93s-11.72,19.94-30,35a139.68,139.68,0,0,1-48.77,26.23A125.08,125.08,0,0,1,56.63,209a159.31,159.31,0,0,1-24.26-2.35,143.43,143.43,0,0,1-18.46-4.8"/><path id="Path_44" data-name="Path 44" class="cls-1" d="M136.45,200.28a96.2,96.2,0,0,0,26.67,8.13c8.1,1,24.49,1.14,38.37-3.73,16.15-5.67,29.66-16.87,34.43-21.87,20.11-21.11,22.75-46.05,22.75-46.05"/><path id="Path_45" data-name="Path 45" class="cls-1" d="M492.94,105.35a96.25,96.25,0,0,0-26.68-8.12c-8.1-1-24.48-1.14-38.36,3.73-16.15,5.66-29.66,16.86-34.44,21.87-20.11,21.11-22.74,46.05-22.74,46.05"/><path id="Path_46" data-name="Path 46" class="cls-1" d="M458.64,141.93s-11.71,19.94-30,35a139.77,139.77,0,0,1-48.77,26.23A125.08,125.08,0,0,1,338.91,209a159.06,159.06,0,0,1-24.25-2.35,143.15,143.15,0,0,1-18.47-4.8"/><path id="Path_47" data-name="Path 47" class="cls-1" d="M418.72,200.28a96.27,96.27,0,0,0,26.68,8.13c8.1,1,24.48,1.14,38.36-3.73,16.16-5.67,29.67-16.87,34.44-21.87,20.11-21.11,22.74-46.05,22.74-46.05"/><path id="Path_48" data-name="Path 48" class="cls-1" d="M453,163.7s11.72-19.93,30-35a140.1,140.1,0,0,1,48.77-26.23,125.08,125.08,0,0,1,40.93-5.77A160.48,160.48,0,0,1,597,99a140,140,0,0,1,18.47,4.8"/><path id="Path_49" data-name="Path 49" class="cls-1" d="M443.84,146.7c-13.27,2.62-28.62,10.43-28.62,10.43-4.89-11.5-9.12-16.09-15.2-21.39a49.11,49.11,0,0,0-17-9.68,73.05,73.05,0,0,0-12.63-3l1.1-.09c22.6-2.68,33.79-17.56,33.79-17.56v0a96.35,96.35,0,0,0-26.68-8.12c-8.1-1-24.49-1.14-38.37,3.73-16.15,5.66-29.66,16.86-34.43,21.87-15.25,16-21.61,36.47-23.24,44.34"/><path id="Path_50" data-name="Path 50" class="cls-1" d="M773,105.35a96.25,96.25,0,0,0-26.68-8.12c-8.1-1-24.48-1.14-38.36,3.73-16.16,5.66-29.67,16.86-34.44,21.87-20.11,21.11-22.74,46.05-22.74,46.05"/><path id="Path_51" data-name="Path 51" class="cls-1" d="M738.66,141.93s-11.72,19.94-30,35a139.59,139.59,0,0,1-48.77,26.23A125.05,125.05,0,0,1,618.93,209a159.06,159.06,0,0,1-24.26-2.35,143.15,143.15,0,0,1-18.47-4.8"/><path id="Path_52" data-name="Path 52" class="cls-1" d="M698.74,200.28a96.2,96.2,0,0,0,26.67,8.13c8.1,1,24.49,1.14,38.37-3.73,16.15-5.67,29.66-16.87,34.43-21.87C818.32,161.7,821,136.76,821,136.76"/><path id="Path_53" data-name="Path 53" class="cls-1" d="M1055.23,105.35a96.18,96.18,0,0,0-26.67-8.12c-8.1-1-24.49-1.14-38.37,3.73-16.15,5.66-29.66,16.86-34.43,21.87C935.65,143.94,933,168.88,933,168.88"/><path id="Path_54" data-name="Path 54" class="cls-1" d="M1020.94,141.93s-11.72,19.94-30,35a139.68,139.68,0,0,1-48.77,26.23A125.08,125.08,0,0,1,901.2,209,159.06,159.06,0,0,1,877,206.6a143.15,143.15,0,0,1-18.47-4.8"/><path id="Path_55" data-name="Path 55" class="cls-1" d="M981,200.28a96.37,96.37,0,0,0,26.68,8.13c8.1,1,24.48,1.14,38.36-3.73,16.16-5.67,29.67-16.87,34.44-21.87,20.11-21.11,22.75-46.05,22.75-46.05"/><path id="Path_56" data-name="Path 56" class="cls-1" d="M1006.13,146.7c-13.27,2.62-28.62,10.43-28.62,10.43-4.89-11.5-9.12-16.09-15.2-21.39a49.11,49.11,0,0,0-17-9.68,73.05,73.05,0,0,0-12.63-3l1.1-.09c22.6-2.68,33.79-17.56,33.79-17.56v0a96.25,96.25,0,0,0-26.68-8.12c-8.1-1-24.48-1.14-38.36,3.73-16.16,5.66-29.67,16.86-34.44,21.87-15.24,16-21.61,36.47-23.24,44.34"/><path id="Path_57" data-name="Path 57" class="cls-2" d="M170.74,163.7s11.72-19.93,30-35a139.87,139.87,0,0,1,48.78-26.22,125,125,0,0,1,40.92-5.77A159.06,159.06,0,0,1,314.73,99a141.54,141.54,0,0,1,18.47,4.8"/><path id="Path_58" data-name="Path 58" class="cls-2" d="M161.56,146.7c-13.27,2.62-28.63,10.43-28.63,10.43-4.88-11.5-9.11-16.09-15.2-21.39a49,49,0,0,0-17-9.68,72.94,72.94,0,0,0-12.62-3l1.1-.09c22.61-2.68,33.79-17.56,33.79-17.56v0a96.25,96.25,0,0,0-26.68-8.12c-8.1-1-24.48-1.14-38.36,3.73-16.16,5.66-29.67,16.86-34.44,21.87C8.24,138.83,1.87,159.3.24,167.17"/><path id="Path_59" data-name="Path 59" class="cls-2" d="M370.94,141.93s-11.72,19.94-30,35a139.59,139.59,0,0,1-48.77,26.23A125.05,125.05,0,0,1,251.21,209,159.06,159.06,0,0,1,227,206.6a143.15,143.15,0,0,1-18.47-4.8"/><path id="Path_60" data-name="Path 60" class="cls-2" d="M733,163.7s11.72-19.93,30-35a140,140,0,0,1,48.77-26.23,125.05,125.05,0,0,1,40.92-5.77A160.35,160.35,0,0,1,877,99a140,140,0,0,1,18.47,4.8"/><path id="Path_61" data-name="Path 61" class="cls-2" d="M723.86,146.7c-13.27,2.62-28.63,10.43-28.63,10.43-4.88-11.5-9.11-16.09-15.2-21.39a49,49,0,0,0-17-9.68,72.94,72.94,0,0,0-12.62-3l1.1-.09c22.61-2.68,33.78-17.56,33.78-17.56v0a96.18,96.18,0,0,0-26.67-8.12c-8.1-1-24.49-1.14-38.37,3.73-16.15,5.66-29.66,16.86-34.43,21.87-15.25,16-21.61,36.47-23.24,44.34"/><path id="Path_62" data-name="Path 62" class="cls-2" d="M651,141.93s-11.71,19.94-30,35a139.77,139.77,0,0,1-48.77,26.23A125.08,125.08,0,0,1,531.22,209,159.31,159.31,0,0,1,507,206.6a143.43,143.43,0,0,1-18.46-4.8"/><path id="Path_63" data-name="Path 63" class="cls-2" d="M933.23,141.93s-11.72,19.94-30,35a139.73,139.73,0,0,1-48.78,26.23A125,125,0,0,1,813.5,209a159.06,159.06,0,0,1-24.26-2.35,143.15,143.15,0,0,1-18.47-4.8"/></g></g></svg>