<svg xmlns="http://www.w3.org/2000/svg" width="886.067" height="646.32" viewBox="0 0 886.067 646.32">
  <g id="Group_6" data-name="Group 6" transform="translate(-475.125 -179.576)">
    <path id="Path_1" data-name="Path 1" d="M748.372,409.458q-1.68,8.835-4.03,17.49c-.17.67-.36,1.33-.55,2H722a7.008,7.008,0,0,0-7,7v62.12c-.66,1.23-1.33,2.45-2,3.67-3.46,6.3-7.06,12.53-10.74,18.68a710.143,710.143,0,0,1-243.69,243.55l5.92-13.36-6.52-.45c-47.25-3.23-94.66-6.81-140.8-17.43-48.27-11.11-95.49-30.38-133.32-62.33s-65.58-77.6-69.43-126.98a144.883,144.883,0,0,1,5.07-50.41c8.87-31.52,28.25-59.88,56.21-76.66,43.92-26.35,101.21-20.98,147.51.94s83.97,58.18,120.76,93.82a466.421,466.421,0,0,0-150.91-157.52c-20.56-13.16-42.38-24.88-59.86-41.93s-30.36-40.93-27.27-65.14c3.51-27.46,26-48.3,48.53-64.37,9-6.42,18.29-12.51,27.87-18.11,27.03-15.84,56.27-27.79,87.15-32.22,41.83-6.01,87.01,3.11,119.08,30.63,36.13,31.01,50.95,81.02,49.54,128.86,22.26-32.36,56.59-57.13,95.36-58.18,40.25-1.08,78.51,24.35,98.67,59.21S755.9,369.908,748.372,409.458Z" transform="translate(368.991 55.948)" fill="rgba(77,35,121,0.11)"/>
    <path id="Path_2" data-name="Path 2" d="M493.714,543.853c23.575-2.076,45.352-4.5,68.2-10.966,22.143-6.266,43.451-16.755,59.214-33.882,16.955-18.422,26.107-42.345,32.564-66.161,3.6-13.278,6.559-26.742,9.35-40.21q4.543-21.92,8.073-44.033,7.027-44.018,10.033-88.554.363-5.406.666-10.816c.125-2.225-3.335-2.218-3.46,0q-2.47,43.9-8.885,87.457c-4.221,28.53-9.621,56.936-16.472,84.955-5.8,23.736-13.32,47.843-28.206,67.6-13.959,18.529-34.122,30.638-55.892,37.877-22.153,7.367-45.51,10.308-68.659,12.5-2.84.268-3.681.524-6.522.774-2.2.194-2.221,3.656,0,3.46Z" transform="translate(368.991 55.948)" fill="#fff"/>
    <path id="Path_3" data-name="Path 3" d="M121.489,495.561a375.01,375.01,0,0,1,87.7,15.454,379.01,379.01,0,0,1,81.676,35.552,369.763,369.763,0,0,1,68.78,51.786,378.869,378.869,0,0,1,53.727,64.062,375.1,375.1,0,0,1,38.447,74.532q1.827,4.811,3.52,9.67c.729,2.089,4.073,1.19,3.336-.92a378.645,378.645,0,0,0-36.729-76.387,383.571,383.571,0,0,0-52.7-66.391,373.963,373.963,0,0,0-67.28-53.692,381.916,381.916,0,0,0-169.574-56.376q-5.446-.456-10.9-.751c-2.225-.122-2.218,3.339,0,3.46Z" transform="translate(368.991 55.948)" fill="#fff"/>
    <path id="Path_4" data-name="Path 4" d="M283.267,168.094a203.8,203.8,0,0,1,53.5,26.144A251.247,251.247,0,0,1,382.44,234.8a336.249,336.249,0,0,1,37.82,52.121,444.663,444.663,0,0,1,30.07,61.135,553.177,553.177,0,0,1,21.9,66.5,621.488,621.488,0,0,1,14,69.475,620.231,620.231,0,0,1,6.027,69.869,553.487,553.487,0,0,1-1.979,67.024,426.915,426.915,0,0,1-10.063,61.706,291.561,291.561,0,0,1-18.155,53.357q-2.7,5.841-5.722,11.521c-1.047,1.965,1.939,3.715,2.988,1.746a266.705,266.705,0,0,0,20.434-51.429,398.286,398.286,0,0,0,12.186-60.5,526.379,526.379,0,0,0,4.026-66.89,613.726,613.726,0,0,0-4.188-70.288,633.121,633.121,0,0,0-12.19-70.232,573.108,573.108,0,0,0-20.381-68.4,475.92,475.92,0,0,0-28.342-62.945,364.9,364.9,0,0,0-36.341-54.851,270.583,270.583,0,0,0-44.4-44,214.686,214.686,0,0,0-52.065-30.032q-6.846-2.725-13.882-4.929c-2.129-.67-3.04,2.669-.92,3.336Z" transform="translate(368.991 55.948)" fill="#fff"/>
    <ellipse id="Ellipse_1" data-name="Ellipse 1" cx="247.5" cy="10" rx="247.5" ry="10" transform="translate(609.993 805.896)" fill="#e6dcf1"/>
    <path id="Path_5" data-name="Path 5" d="M707.171,446.737a10.524,10.524,0,0,0-.239,1.64l-42.958,24.782-10.441-6.011L642.4,481.721l22.337,15.921,49.008-38.663a10.5,10.5,0,1,0-6.576-12.241Z" transform="translate(368.991 55.948)" fill="#ffb8b8"/>
    <path id="Path_6" data-name="Path 6" d="M609.338,461.942l33.824,24.107,15.128-18.967L625.41,440.7a13.324,13.324,0,0,0-19.189,2.659h0a13.324,13.324,0,0,0,3.117,18.584Z" transform="translate(368.991 55.948)" fill="#4d2379"/>
    <path id="Path_7" data-name="Path 7" d="M425.519,606.957l11.86,3.107,17.63-44.264-17.5-4.587Z" transform="translate(482.989 186)" fill="#ffb8b8"/>
    <path id="Path_8" data-name="Path 8" d="M535.348,737.595h38.531v14.887H550.235a14.887,14.887,0,0,1-14.887-14.887h0Z" transform="matrix(-0.967, -0.253, 0.253, -0.967, 1271.26, 1662.272)" fill="#2f2e41"/>
    <path id="Path_9" data-name="Path 9" d="M530.942,615.4l12.069-2.156-2.572-47.577-17.812,3.182Z" transform="translate(482.989 186)" fill="#ffb8b8"/>
    <path id="Path_10" data-name="Path 10" d="M642.747,738.963h38.531V753.85H657.634a14.887,14.887,0,0,1-14.887-14.887h0Z" transform="translate(1813.952 1420.719) rotate(169.872)" fill="#2f2e41"/>
    <path id="Path_11" data-name="Path 11" d="M621.175,395.561c2.974.724,5.393,3.754,6.846,7.265a50.678,50.678,0,0,1,2.7,11.414c1.142,7.257,2.238,15.113-.123,21.834-2.768,7.877-10.142,12-16.539,10.064s-11.484-9.217-13.222-17.594a42.609,42.609,0,0,1,2.924-25.084c1.817-4.137,4.322-7.954,7.65-9.82a7.55,7.55,0,0,1,10.068,2.1" transform="translate(368.991 55.948)" fill="#2f2e41"/>
    <path id="Path_12" data-name="Path 12" d="M638,526.948l22.977,205.794L642,739.948l-35-138L558.274,728.126,537.5,729.28S566,532.948,587.124,528.486Z" transform="translate(368.991 55.948)" fill="#2f2e41"/>
    <circle id="Ellipse_2" data-name="Ellipse 2" cx="24.561" cy="24.561" r="24.561" transform="translate(963.133 428.65)" fill="#ffb8b8"/>
    <path id="Path_13" data-name="Path 13" d="M629.244,432.128,602.7,428.666s-17.31,20.772-16.156,56.546-2.885,46.737-2.885,46.737l55.341,1C631,521.948,664.464,458.771,629.244,432.128Z" transform="translate(368.991 55.948)" fill="#4d2379"/>
    <path id="Path_14" data-name="Path 14" d="M643.5,537.948a10.522,10.522,0,0,0-1.651.142L607.9,501.944l3.462-11.54-16.733-7.5-10.387,25.387L633.09,547.15a10.5,10.5,0,1,0,10.412-9.2Z" transform="translate(368.991 55.948)" fill="#ffb8b8"/>
    <path id="Path_15" data-name="Path 15" d="M606.312,446.191l-15.727,38.443,21.926,10.386,18.158-38.045a13.324,13.324,0,0,0-6.98-18.071h0a13.324,13.324,0,0,0-17.377,7.287Z" transform="translate(368.991 55.948)" fill="#4d2379"/>
    <g id="Group_1" data-name="Group 1" transform="translate(139 133)">
      <path id="Path_17" data-name="Path 17" d="M574.1,479.328c-.113,0-.185,0-.209,0H560.326v-2H573.94c.315.011,6.746.193,12.671-7,8.83-10.715,16.081-37.24.481-102.756-20.975-88.1-3.481-165.923,5.014-195.295a9.752,9.752,0,0,0-9.383-12.452H380.148a9.8,9.8,0,0,0-7.9,4.021c-3.6,4.95-8.537,14.46-11.627,31.655l-1.968-.354c3.157-17.569,8.256-27.358,11.978-32.478a11.8,11.8,0,0,1,9.517-4.845H582.723a11.753,11.753,0,0,1,11.3,15.007c-8.451,29.22-25.855,106.644-4.99,194.277,15.818,66.438,8.214,93.537-.951,104.572C582.043,478.959,575.382,479.328,574.1,479.328Z" transform="translate(623.999 -90.519)" fill="#e6e6e6"/>
      <path id="Path_18" data-name="Path 18" d="M537.6,515.828c-.113,0-.185,0-.209,0H523.826v-2H537.44c.317.01,6.746.193,12.671-7,8.83-10.715,16.081-37.24.481-102.756-20.975-88.1-3.481-165.923,5.014-195.295a9.752,9.752,0,0,0-9.383-12.452H343.648a9.8,9.8,0,0,0-7.9,4.021c-3.6,4.95-8.537,14.46-11.627,31.655l-1.969-.354c3.157-17.569,8.256-27.358,11.978-32.478a11.8,11.8,0,0,1,9.517-4.845H546.223a11.753,11.753,0,0,1,11.3,15.007c-8.451,29.22-25.855,106.644-4.99,194.277,15.818,66.438,8.214,93.537-.951,104.572C545.543,515.459,538.882,515.828,537.6,515.828Z" transform="translate(623.999 -90.519)" fill="#ccc"/>
      <path id="Path_19" data-name="Path 19" d="M501.1,552.328c-.113,0-.185,0-.209,0H301.438a11.75,11.75,0,0,1-10.928-16.1c7.237-18.081,16.981-61.459.931-148.839-18.951-103.18-1.985-140.47,6.189-151.713a11.8,11.8,0,0,1,9.518-4.845H509.723a11.753,11.753,0,0,1,11.3,15.007c-8.451,29.22-25.855,106.644-4.99,194.277,15.818,66.438,8.214,93.537-.951,104.572C509.043,551.959,502.382,552.328,501.1,552.328Zm-193.952-319.5a9.8,9.8,0,0,0-7.9,4.021c-8.023,11.035-24.651,47.757-5.84,150.176,15.332,83.474,7.9,127.614-1.042,149.944a9.587,9.587,0,0,0,.977,9.064,9.763,9.763,0,0,0,8.095,4.294h199.5c.315.015,6.746.193,12.671-7,8.83-10.715,16.081-37.24.481-102.756-20.975-88.1-3.481-165.923,5.014-195.295a9.752,9.752,0,0,0-9.383-12.452Z" transform="translate(623.999 -90.519)" fill="#3f3d56"/>
      <path id="Path_20" data-name="Path 20" d="M475.267,320.825h-159a8,8,0,0,1,0-16h159a8,8,0,0,1,0,16Z" transform="translate(623.999 -90.519)" fill="#4d2379"/>
      <path id="Path_21" data-name="Path 21" d="M475.267,354.825h-159a8,8,0,0,1,0-16h159a8,8,0,0,1,0,16Z" transform="translate(623.999 -90.519)" fill="rgba(77,35,121,0.42)"/>
      <path id="Path_22" data-name="Path 22" d="M475.267,388.825h-159a8,8,0,0,1,0-16h159a8,8,0,0,1,0,16Z" transform="translate(623.999 -90.519)" fill="rgba(77,35,121,0.42)"/>
      <path id="Path_23" data-name="Path 23" d="M487.267,422.825h-159a8,8,0,0,1,0-16h159a8,8,0,0,1,0,16Z" transform="translate(623.999 -90.519)" fill="rgba(77,35,121,0.42)"/>
      <path id="Path_24" data-name="Path 24" d="M487.267,456.825h-159a8,8,0,0,1,0-16h159a8,8,0,0,1,0,16Z" transform="translate(623.999 -90.519)" fill="rgba(77,35,121,0.42)"/>
      <path id="Path_25" data-name="Path 25" d="M391.267,286.825h-75a8,8,0,0,1,0-16h75a8,8,0,0,1,0,16Z" transform="translate(623.999 -90.519)" fill="#4d2379"/>
      <path id="Path_26" data-name="Path 26" d="M381.583,511.647c1.614-6.835,9.2-9.075,15.4-8.825a65.729,65.729,0,0,1,11.611,1.837c3.984.891,7.929,1.947,11.855,3.066,7.2,2.053,14.323,4.536,21.64,6.141,6.091,1.336,12.711,2.12,18.786.275,5.839-1.773,10.793-6.126,12.382-12.145,1.5-5.672-.558-11.873-6.054-14.465-5.012-2.364-11.342-1.162-13.827,4.184-2.8,6.027,0,12.6,4.432,16.96a49.67,49.67,0,0,0,8.238,6.257,30.676,30.676,0,0,0,9.864,4.418c5.785,1.236,12.676-.585,15.66-6.112a10.33,10.33,0,0,0,1.172-4.037c.177-1.922-2.824-1.91-3,0-.506,5.5-6.951,8.081-11.77,7.477a23.925,23.925,0,0,1-9.125-3.542,53.473,53.473,0,0,1-7.558-5.333c-4.088-3.538-7.92-9.359-5.174-14.879,2.236-4.495,8.063-4.45,11.608-1.551,4.293,3.511,3.527,9.883.7,14.052-3.135,4.616-8.817,6.551-14.174,6.76-5.821.227-11.593-1.109-17.157-2.689-6.913-1.963-13.756-4.16-20.7-6.008-3.943-1.049-7.917-2-11.931-2.733a39.375,39.375,0,0,0-11.569-.8c-6.26.723-12.65,4.367-14.191,10.894C378.247,512.727,381.139,513.528,381.583,511.647Z" transform="translate(623.999 -90.519)" fill="#3f3d56"/>
    </g>
    <path id="Path_16" data-name="Path 16" d="M612.278,419.592c3.848-2.22,4.259-7.576,3.736-11.988s-1.4-9.331,1.2-12.938c3.1-4.306,9.314-4.391,14.615-4.532s11.756-1.693,13.129-6.814c.908-3.384-1.034-7.016-3.82-9.14s-6.272-3.064-9.66-3.956c-7.579-2-15.406-4.01-23.166-2.913a29.535,29.535,0,0,0-25.163,32.98c1.256,9.851,3.078,14.153,1.882,18.5C582.8,426.878,573.2,432.075,573,440.464c-.15,6.562,5.647,11.624,11.3,14.956,4.486,2.643,9.327,4.885,14.5,5.5s10.735-.566,14.586-4.07c4.967-4.519,6.2-12.069,4.771-18.631s-5.078-12.39-8.691-18.049" transform="translate(368.991 55.948)" fill="#2f2e41"/>
    <g id="freepik--Plants--inject-53" transform="translate(437.879 274.913)">
      <path id="Path_56" data-name="Path 56" d="M55.069,412.789c5.724-.82,16.595-7.911,16.595-7.911s-6.834-5.741-7.316-6.046c-5.548-3.554-18.363-7.172-24.12-2.476a8.748,8.748,0,0,0-.161,13.009C43.8,413.03,50.2,413.5,55.069,412.789Z" transform="translate(0 33.28)" fill="#4d2379"/>
      <path id="Path_57" data-name="Path 57" d="M125.6,380.87c.129,0-2.541-8.571-2.766-9.085-2.669-6.03-11.369-16.08-18.717-15.34a8.731,8.731,0,0,0-7.332,10.741c1.061,5.1,6.159,9.021,10.613,11.127C112.624,380.774,125.585,380.87,125.6,380.87Z" transform="translate(36.046 10.35)" fill="#4d2379"/>
      <path id="Path_58" data-name="Path 58" d="M167.1,534.171c2.525,3.216,4.824,6.094,6.882,8.812h5.21c-2.621-3.361-5.676-7.156-9.117-11.256-2.01-2.4-4.2-4.92-6.432-7.477a85.519,85.519,0,0,0,5.773-7.944c4.631,1.608,14.118,1.142,15.356,1.077.354,3.055.659,6.03.917,8.844.595,6.352.965,12,1.206,16.755h4.213c-.338-4.824-.836-10.629-1.608-17.141-.354-3.1-.788-6.432-1.254-9.809,1.19-.37,10.918-3.409,14.472-6.561,3.216-2.878,6.577-7.429,6.223-12a7.7,7.7,0,0,0-8.828-7.268c-6.432,1.158-11.256,11.8-12.028,17.543,0,.338-.129,4.068-.129,6.432-.209-1.383-.386-2.734-.611-4.165-.434-2.814-.949-5.612-1.479-8.619-.322-1.447-.627-2.91-.949-4.39s-.772-2.991-1.158-4.5c-.949-3.473-2.09-6.963-3.329-10.436,2.476-.386,11.256-1.865,14.858-4.229s7.622-6.336,8.04-10.9a7.7,7.7,0,0,0-7.638-8.522c-6.432.177-12.864,9.97-14.472,15.517-.1.354-.82,4.47-1.174,6.754-.756-2.09-1.5-4.181-2.332-6.271-2.4-6.014-5.017-12.044-7.59-18.058-.8-1.849-1.608-3.7-2.348-5.531.884-.129,11.256-1.608,15.4-4.309,3.634-2.348,7.622-6.336,8.04-10.918a7.67,7.67,0,0,0-7.622-8.506c-6.432.177-12.864,9.954-14.472,15.517-.129.418-1.158,6.352-1.335,7.879-1.721-4.068-3.377-8.137-4.824-12.2A136.306,136.306,0,0,1,158,421.467c.4,0,11.256-1.608,15.485-4.326,3.634-2.348,7.622-6.336,8.04-10.918a7.67,7.67,0,0,0-7.622-8.506c-6.432.177-12.864,9.954-14.472,15.517-.113.37-.9,4.824-1.222,7.043h-.37a99.509,99.509,0,0,1-2.38-17.527c-.1-3.216,0-6.432.145-9.375,2.058,0,11.465-.547,15.5-2.573s8.281-5.467,9.117-9.97a7.686,7.686,0,0,0-6.641-9.294c-6.432-.547-13.925,8.474-16.08,13.829-.113.289-1.029,3.377-1.608,5.644.1-1.367.161-2.766.273-4.068.4-4.824,1.077-9.342,1.721-13.282.37-2.235.756-4.261,1.142-6.143,1.978-1.126,9.889-5.789,12.494-9.375s4.824-8.667,3.489-13.057a7.686,7.686,0,0,0-10.179-5.194c-6,2.508-8.458,13.941-8.04,19.714,0,.5,1.608,8.233,1.608,8.185l.273-.08c-.4,1.8-.82,3.747-1.222,5.869-.724,3.94-1.5,8.394-2.01,13.282a136.064,136.064,0,0,0-.917,15.9,100.55,100.55,0,0,0,1.5,17.688v.209c-.884-1.608-3.522-6.3-3.763-6.641-3.425-4.663-12.864-11.69-18.942-9.648a7.686,7.686,0,0,0-4.277,10.6c1.865,4.2,6.963,6.593,11.256,7.574,4.824,1.093,15.131-1.013,15.951-1.19a135.071,135.071,0,0,0,4.824,17.511c1.126,3.345,2.364,6.673,3.65,9.986a31.548,31.548,0,0,1-1.608-2.862c-3.425-4.679-12.784-11.706-18.942-9.648a7.686,7.686,0,0,0-4.277,10.6c1.865,4.181,6.963,6.593,11.256,7.558s13.153-.627,15.5-1.093c.5,1.27,1,2.557,1.512,3.811,2.46,6.094,4.937,12.14,7.172,18.17.8,2.107,1.5,4.229,2.219,6.352-.724-1.27-1.351-2.332-1.463-2.492-3.425-4.679-12.864-11.706-18.942-9.648a7.686,7.686,0,0,0-4.277,10.6c1.865,4.181,6.979,6.593,11.256,7.574s12.285-.482,15.083-1.013c.659,2.187,1.335,4.374,1.865,6.529.338,1.463.772,2.862,1.029,4.374s.563,2.943.852,4.406c.434,2.814.9,5.708,1.254,8.474.273,1.914.482,3.747.708,5.6-.772-2.123-2.348-6.239-2.525-6.561a29.571,29.571,0,0,0-10.5-10.79,8.378,8.378,0,0,0-.9-1.447,7.686,7.686,0,0,0-11.369-1.174c-4.7,4.486-2.878,16.08-.354,21.258.161.306,2.139,3.457,3.441,5.435l-2.814-3.216c-1.914-2.107-3.875-4.165-6-6.432l-3.216-3.12c-1.045-1.077-2.283-2.074-3.441-3.12-2.718-2.38-5.6-4.647-8.538-6.882,1.849-1.608,8.313-7.734,10.066-11.706s2.862-9.5.627-13.507a7.7,7.7,0,0,0-11.063-2.894c-5.322,3.731-5.274,15.437-3.57,20.9.113.354,1.785,4.181,2.75,6.271-1.785-1.319-3.554-2.653-5.4-3.94-5.322-3.7-10.822-7.268-16.305-10.87-1.608-1.093-3.329-2.219-5-3.329.659-.595,8.522-7.622,10.468-12.076,1.737-3.972,2.862-9.5.627-13.507a7.7,7.7,0,0,0-11.063-2.894c-5.306,3.731-5.274,15.437-3.554,20.9.129.418,2.541,5.934,3.216,7.3-3.666-2.444-7.284-4.92-10.774-7.509A134.443,134.443,0,0,1,86.3,461.972c.305-.273,8.538-7.574,10.532-12.156,1.753-3.956,2.862-9.487.627-13.491A7.686,7.686,0,0,0,86.4,433.43c-5.306,3.731-5.274,15.437-3.554,20.9.113.37,1.946,4.567,2.862,6.545a3.42,3.42,0,0,1-.306.209A98.7,98.7,0,0,1,74.146,447.5c-1.865-2.653-3.505-5.29-5.049-7.9,1.608-1.206,9.246-6.786,11.513-10.693s3.875-9.133,2.09-13.346a7.654,7.654,0,0,0-10.661-4.084c-5.692,3.1-6.947,14.745-5.853,20.438,0,.306,1.013,3.393,1.737,5.628-.675-1.19-1.4-2.4-2.026-3.554-2.348-4.293-4.245-8.378-5.885-12.012-.933-2.074-1.721-3.972-2.444-5.757,1.029-2.026,5.049-10.291,5.258-14.729s-.772-9.873-4.293-12.864a7.67,7.67,0,0,0-11.352,1.286c-3.618,5.387.643,16.289,4.229,20.9.322.386,5.869,5.982,5.934,5.869v-.113c.659,1.721,1.4,3.57,2.235,5.564,1.608,3.682,3.377,7.815,5.644,12.189a137.021,137.021,0,0,0,8.04,13.765,98.933,98.933,0,0,0,11.031,13.957l.161.161c-1.608-.917-6.432-3.312-6.8-3.457-5.435-2.026-17.109-2.718-21.129,2.38a7.686,7.686,0,0,0,2.267,11.256c3.875,2.46,9.455,1.608,13.507.129,4.583-1.7,12.06-9.182,12.655-9.793a133.015,133.015,0,0,0,13.636,11.98c2.782,2.171,5.644,4.261,8.555,6.319-1.463-.74-2.782-1.4-2.975-1.463-5.435-2.01-17.125-2.718-21.129,2.4a7.67,7.67,0,0,0,2.267,11.256c3.875,2.46,9.455,1.608,13.507.129s10.629-7.783,12.333-9.455l3.361,2.348c5.4,3.714,10.806,7.4,16.08,11.176,1.833,1.335,3.586,2.718,5.355,4.084-1.3-.659-2.412-1.206-2.589-1.27-5.435-2.01-17.109-2.718-21.129,2.4a7.67,7.67,0,0,0,2.283,11.256c3.859,2.46,9.455,1.608,13.507.129s9.986-7.172,12.012-9.166c1.769,1.463,3.522,2.927,5.162,4.422,1.11,1.045,2.235,1.978,3.216,3.087l3.216,3.216c1.914,2.107,3.907,4.277,5.724,6.432,1.286,1.447,2.476,2.862,3.666,4.277-1.8-1.351-5.4-3.907-5.724-4.084-5.065-2.814-16.5-5.274-21.242-.836a7.686,7.686,0,0,0,.547,11.417c3.457,3.007,9.1,3.055,13.33,2.171,4.663-.981,12.864-6.947,13.925-7.7C163.5,529.653,165.352,531.952,167.1,534.171Z" transform="translate(5.203)" fill="#4d2379"/>
    </g>
    <g id="Group_4" data-name="Group 4">
      <circle id="Ellipse_3" data-name="Ellipse 3" cx="38.542" cy="38.542" r="38.542" transform="translate(941.993 182.076)" fill="#fff" stroke="#4d2379" stroke-width="5"/>
      <g id="Group_2" data-name="Group 2" transform="translate(0 2.866)">
        <path id="Path_127" data-name="Path 127" d="M247.613,225.954a1.682,1.682,0,0,0,2.415.642,40.929,40.929,0,0,0,3.617-2.143,4.828,4.828,0,0,0,.995-1.347c-.226-.534-.344-.9-.525-1.23-.488-.9-1.013-1.809-1.528-2.713l-5.236-9.043a1.809,1.809,0,0,0-2.812-.751c-1.121.633-2.234,1.266-3.328,1.935a1.655,1.655,0,0,0-.678,2.387Q244.059,219.849,247.613,225.954Z" transform="translate(726.777 -18.314)" fill="#4d2379"/>
        <path id="Path_128" data-name="Path 128" d="M275.751,259.286q-3.436-5.969-6.891-11.919a1.709,1.709,0,0,0-2.6-.733q-1.727.968-3.418,1.98A1.7,1.7,0,0,0,262.1,251l7.488,12.778a1.673,1.673,0,0,0,1.98.154c1.212-.66,2.433-1.32,3.617-2.089a5.642,5.642,0,0,0,1.067-1.311,8.735,8.735,0,0,0-.5-1.248Z" transform="translate(724.71 -21.885)" fill="#4d2379"/>
        <path id="Path_129" data-name="Path 129" d="M257.439,248.831a5.426,5.426,0,0,1-4.522-.4A11.413,11.413,0,0,1,250.765,247a21.315,21.315,0,0,1-6.683-11.2c-.66-2.713-.841-5.426,1.239-7.6l-7.7-13.2c-.606.389-1.194.76-1.745,1.148a7.18,7.18,0,0,0-3.373,6.638,42.876,42.876,0,0,0,1.167,7.967,63.086,63.086,0,0,0,13.3,24.489,33.243,33.243,0,0,0,8.139,7.153,8.835,8.835,0,0,0,10.02-.461Z" transform="translate(727.522 -18.891)" fill="#4d2379"/>
      </g>
    </g>
    <g id="Group_5" data-name="Group 5" transform="translate(-89 -22.47)">
      <circle id="Ellipse_8" data-name="Ellipse 8" cx="34.001" cy="34.001" r="34.001" transform="translate(1193.993 637.357)" fill="rgba(77,35,121,0.1)"/>
      <g id="Group_3" data-name="Group 3" transform="translate(1206.539 657.025)">
        <path id="Path_130" data-name="Path 130" d="M269.338,129.99H229.86l19.461,18.764Z" transform="translate(-227.639 -129.99)" fill="#4d2379"/>
        <path id="Path_131" data-name="Path 131" d="M264.37,145.049l13.744,12.15V132.17Z" transform="translate(-234.781 -130.441)" fill="#4d2379"/>
        <path id="Path_132" data-name="Path 132" d="M240.986,144.878,227.06,131.46v25.021Z" transform="translate(-227.06 -130.294)" fill="#4d2379"/>
        <path id="Path_133" data-name="Path 133" d="M255.206,150.47l-6.186,5.8-6.011-5.789-14.489,12.07h40.35Z" transform="translate(-227.362 -134.228)" fill="#4d2379"/>
      </g>
    </g>
    <path id="Path_134" data-name="Path 134" d="M366,430.5c-1.389,1.727-2.653,3.352-3.784,4.843h-2.857c1.436-1.845,3.14-3.925,5.008-6.186,1.1-1.319,2.3-2.7,3.548-4.113a46.838,46.838,0,0,1-3.14-4.357c-2.551.856-7.763.628-8.438.6-.2,1.672-.369,3.313-.51,4.851-.33,3.493-.526,6.594-.659,9.208h-2.355c.188-2.669.463-5.84.871-9.42.2-1.711.432-3.524.7-5.393-.659-.2-6-1.868-7.967-3.6-1.782-1.57-3.611-4.082-3.415-6.594a4.223,4.223,0,0,1,4.851-3.988c3.509.636,6.178,6.484,6.6,9.639,0,.188.071,2.237.078,3.532.11-.785.212-1.5.33-2.284.235-1.57.518-3.085.785-4.71.173-.785.345-1.57.518-2.41s.424-1.641.636-2.473c.526-1.907,1.154-3.823,1.829-5.738-1.358-.2-6.162-1.02-8.171-2.316s-4.184-3.485-4.372-6a4.231,4.231,0,0,1,4.192-4.71c3.564.094,7.065,5.495,7.991,8.533.055.188.447,2.449.644,3.7.416-1.146.824-2.292,1.279-3.438,1.319-3.3,2.755-6.617,4.176-9.922.432-1.013.856-2.033,1.279-3.046-.479-.071-6.209-.911-8.462-2.355-1.994-1.287-4.184-3.485-4.372-6a4.231,4.231,0,0,1,4.192-4.71c3.564.094,7.065,5.495,7.983,8.533.071.228.636,3.485.738,4.325.942-2.237,1.853-4.474,2.661-6.711a74.712,74.712,0,0,0,2.74-9.239c-.228,0-6.209-.887-8.517-2.355-1.994-1.287-4.184-3.485-4.372-6a4.223,4.223,0,0,1,4.192-4.71c3.564.094,7.065,5.495,7.983,8.525.063.2.495,2.685.675,3.87h.2a54.231,54.231,0,0,0,1.028-9.639c.055-1.782,0-3.485-.078-5.141-1.13-.047-6.28-.306-8.517-1.421s-4.545-3-5.008-5.495a4.231,4.231,0,0,1,3.658-5.11c3.548-.3,7.646,4.663,8.87,7.6.071.165.565,1.86.911,3.14-.047-.785-.086-1.523-.149-2.237-.228-2.692-.6-5.134-.942-7.3-.2-1.232-.416-2.355-.628-3.367-1.083-.628-5.432-3.187-6.868-5.157s-2.645-4.765-1.915-7.175a4.223,4.223,0,0,1,5.6-2.849c3.289,1.374,4.639,7.661,4.372,10.832,0,.275-.879,4.521-.934,4.49l-.063-.039c.22.989.447,2.057.667,3.226.392,2.159.785,4.608,1.107,7.3a75.393,75.393,0,0,1,.5,8.729,55.609,55.609,0,0,1-.785,9.749v.11c.487-.918,1.939-3.462,2.072-3.642,1.876-2.567,7.025-6.429,10.409-5.306A4.215,4.215,0,0,1,386.946,365c-1.028,2.3-3.839,3.627-6.154,4.16-2.614.6-8.313-.557-8.768-.652a75.123,75.123,0,0,1-2.606,9.616c-.62,1.837-1.3,3.666-2.01,5.495.447-.785.848-1.484.918-1.57,1.876-2.567,7.018-6.429,10.409-5.306a4.215,4.215,0,0,1,2.355,5.817c-1.028,2.3-3.831,3.626-6.146,4.16s-7.229-.353-8.517-.6c-.283.7-.549,1.4-.832,2.1-1.35,3.344-2.708,6.672-3.925,9.977-.432,1.162-.785,2.355-1.209,3.493.4-.7.738-1.287.785-1.366,1.876-2.575,7.018-6.429,10.409-5.314a4.223,4.223,0,0,1,2.355,5.824c-1.028,2.3-3.831,3.627-6.146,4.152s-6.758-.259-8.289-.557c-.361,1.209-.73,2.41-1.028,3.6-.181.785-.416,1.57-.557,2.4s-.314,1.617-.471,2.418c-.235,1.57-.495,3.14-.691,4.663-.149,1.052-.267,2.057-.385,3.069.416-1.162,1.287-3.422,1.382-3.6a16.39,16.39,0,0,1,5.769-5.926,4.657,4.657,0,0,1,.5-.785,4.215,4.215,0,0,1,6.24-.651c2.583,2.465,1.57,8.815.188,11.68-.078.173-1.17,1.907-1.884,2.991.518-.573,1-1.138,1.57-1.719,1.052-1.162,2.127-2.292,3.289-3.509l1.766-1.719c.573-.589,1.256-1.138,1.884-1.711,1.5-1.311,3.077-2.559,4.71-3.784-1.013-.918-4.568-4.247-5.495-6.437s-1.57-5.212-.338-7.41a4.223,4.223,0,0,1,6.076-1.57c2.92,2.049,2.9,8.478,1.955,11.523-.055.188-.973,2.292-1.5,3.438.973-.722,1.947-1.452,2.959-2.159,2.928-2.033,5.95-4,8.964-5.974l2.747-1.829c-.369-.33-4.71-4.192-5.754-6.641-.958-2.174-1.57-5.22-.338-7.418a4.215,4.215,0,0,1,6.076-1.57c2.92,2.041,2.9,8.478,1.954,11.515-.071.228-1.4,3.265-1.774,4.019,2.017-1.35,4.011-2.708,5.919-4.129a73.591,73.591,0,0,0,7.386-6.2c-.173-.149-4.71-4.16-5.793-6.672-.958-2.174-1.57-5.22-.345-7.41a4.215,4.215,0,0,1,6.076-1.57c2.928,2.049,2.9,8.478,1.962,11.515-.063.2-1.075,2.512-1.57,3.6a1.25,1.25,0,0,1,.165.118,53.747,53.747,0,0,0,6.178-7.473c1.028-1.46,1.931-2.9,2.771-4.333-.918-.667-5.079-3.729-6.319-5.879s-2.135-5.016-1.154-7.332a4.215,4.215,0,0,1,5.864-2.253c3.14,1.711,3.807,8.109,3.211,11.233,0,.173-.557,1.868-.95,3.093.369-.652.785-1.319,1.107-1.947,1.3-2.355,2.355-4.608,3.242-6.609.5-1.138.942-2.174,1.334-3.14-.565-1.115-2.771-5.66-2.881-8.093s.416-5.432,2.355-7.065a4.215,4.215,0,0,1,6.24.706c1.986,2.959-.353,8.949-2.355,11.445-.165.22-3.218,3.289-3.25,3.234l-.039-.071c-.361.95-.785,1.962-1.217,3.061-.863,2.017-1.86,4.294-3.14,6.7a73.329,73.329,0,0,1-4.4,7.559,54.509,54.509,0,0,1-6.068,7.677.734.734,0,0,1-.079.078c.911-.5,3.525-1.813,3.736-1.892,2.983-1.107,9.42-1.491,11.61,1.311a4.215,4.215,0,0,1-1.256,6.154c-2.119,1.35-5.189.9-7.418.071-2.512-.942-6.625-5.047-6.955-5.377a74.063,74.063,0,0,1-7.481,6.578q-2.355,1.79-4.71,3.477a12.867,12.867,0,0,1,1.641-.785c2.983-1.107,9.42-1.491,11.61,1.311a4.215,4.215,0,0,1-1.256,6.154c-2.119,1.35-5.189.911-7.418.079s-5.84-4.286-6.774-5.2c-.612.424-1.225.863-1.845,1.287-2.967,2.041-5.942,4.066-8.8,6.146-1,.73-1.962,1.491-2.936,2.245.722-.369,1.327-.667,1.421-.7,2.983-1.107,9.42-1.491,11.61,1.311a4.215,4.215,0,0,1-1.248,6.154c-2.127,1.35-5.2.911-7.426.071s-5.495-3.925-6.6-5.032c-.966.785-1.939,1.57-2.834,2.426-.6.573-1.224,1.083-1.8,1.7l-1.727,1.758c-1.052,1.162-2.143,2.355-3.14,3.5-.7.785-1.358,1.57-2.017,2.355,1-.738,2.967-2.143,3.14-2.245,2.787-1.57,9.066-2.9,11.672-.463a4.223,4.223,0,0,1-.3,6.28c-1.978,1.593-5.047,1.593-7.4,1.138-2.559-.534-7.065-3.823-7.646-4.231C368.013,428.023,366.961,429.287,366,430.5Z" transform="translate(715.403 380.549)" fill="#b4a2c7"/>
  </g>
</svg>
