<svg xmlns="http://www.w3.org/2000/svg" xmlns:xlink="http://www.w3.org/1999/xlink" viewBox="0 0 2159.8 175.31"><defs><style>.cls-1,.cls-4,.cls-5{fill:none;}.cls-2{clip-path:url(#clip-path);}.cls-3{opacity:0.2;}.cls-4,.cls-5{stroke:#fff;stroke-miterlimit:10;}.cls-4{stroke-width:0.25px;}.cls-5{stroke-width:0.5px;}</style><clipPath id="clip-path" transform="translate(573.17 -47.06)"><rect class="cls-1" width="850.39" height="132.66"/></clipPath></defs><g id="Layer_2" data-name="Layer 2"><g id="Layer_1-2" data-name="Layer 1"><g class="cls-2"><g class="cls-3"><path class="cls-4" d="M-170.1,54.58a80.82,80.82,0,0,0-22.35-6.8c-6.78-.84-20.51-1-32.13,3.12a82.09,82.09,0,0,0-28.85,18.32,72.78,72.78,0,0,0-19.05,38.58" transform="translate(573.17 -47.06)"/><path class="cls-4" d="M-198.83,85.22s-9.81,16.7-25.16,29.34a117.16,117.16,0,0,1-40.85,22,104.81,104.81,0,0,1-34.28,4.83,133.28,133.28,0,0,1-20.32-2,119,119,0,0,1-15.47-4" transform="translate(573.17 -47.06)"/><path class="cls-4" d="M-232.27,134.1a80.91,80.91,0,0,0,22.34,6.81c6.79.84,20.51,1,32.14-3.13a81.81,81.81,0,0,0,28.85-18.32,72.73,72.73,0,0,0,19.05-38.57" transform="translate(573.17 -47.06)"/><path class="cls-4" d="M66.35,54.58A80.82,80.82,0,0,0,44,47.78c-6.78-.84-20.51-1-32.13,3.12A82.09,82.09,0,0,0-17,69.22,72.78,72.78,0,0,0-36,107.8" transform="translate(573.17 -47.06)"/><path class="cls-4" d="M37.62,85.22s-9.81,16.7-25.16,29.34a117.16,117.16,0,0,1-40.85,22,104.81,104.81,0,0,1-34.28,4.83,133.28,133.28,0,0,1-20.32-2,119,119,0,0,1-15.47-4" transform="translate(573.17 -47.06)"/><path class="cls-4" d="M4.18,134.1a80.91,80.91,0,0,0,22.34,6.81c6.79.84,20.51,1,32.14-3.13a81.81,81.81,0,0,0,28.85-18.32,72.73,72.73,0,0,0,19-38.57" transform="translate(573.17 -47.06)"/><path class="cls-4" d="M32.91,103.46s9.81-16.7,25.15-29.33a117,117,0,0,1,40.86-22,104.82,104.82,0,0,1,34.28-4.84,133.42,133.42,0,0,1,20.32,2,118.06,118.06,0,0,1,15.47,4" transform="translate(573.17 -47.06)"/><path class="cls-4" d="M25.22,89.22C14.1,91.42,1.24,98,1.24,98-2.85,88.32-6.39,84.48-11.49,80a40.94,40.94,0,0,0-14.27-8.1A60,60,0,0,0-36.34,69.4l.92-.08c18.94-2.25,28.3-14.71,28.3-14.71v0a80.82,80.82,0,0,0-22.35-6.8c-6.78-.84-20.5-1-32.13,3.12A82.09,82.09,0,0,0-90.45,69.22c-12.77,13.41-18.1,30.56-19.46,37.15" transform="translate(573.17 -47.06)"/><path class="cls-4" d="M303.19,54.58a80.76,80.76,0,0,0-22.34-6.8c-6.79-.84-20.51-1-32.14,3.12a82.09,82.09,0,0,0-28.85,18.32,72.78,72.78,0,0,0-19.05,38.58" transform="translate(573.17 -47.06)"/><path class="cls-4" d="M274.46,85.22s-9.81,16.7-25.15,29.34a117.2,117.2,0,0,1-40.86,22,104.75,104.75,0,0,1-34.28,4.83,133.4,133.4,0,0,1-20.32-2,119,119,0,0,1-15.47-4" transform="translate(573.17 -47.06)"/><path class="cls-4" d="M241,134.1a80.86,80.86,0,0,0,22.35,6.81c6.79.84,20.51,1,32.13-3.13a81.71,81.71,0,0,0,28.85-18.32,72.64,72.64,0,0,0,19-38.57" transform="translate(573.17 -47.06)"/><path class="cls-4" d="M539.64,54.58a80.76,80.76,0,0,0-22.34-6.8c-6.79-.84-20.51-1-32.14,3.12a81.93,81.93,0,0,0-28.84,18.32,72.75,72.75,0,0,0-19.06,38.58" transform="translate(573.17 -47.06)"/><path class="cls-4" d="M510.91,85.22s-9.81,16.7-25.15,29.34a117.2,117.2,0,0,1-40.86,22,104.75,104.75,0,0,1-34.28,4.83,133.4,133.4,0,0,1-20.32-2,119,119,0,0,1-15.47-4" transform="translate(573.17 -47.06)"/><path class="cls-4" d="M477.47,134.1a81,81,0,0,0,22.35,6.81c6.79.84,20.51,1,32.14-3.13a81.74,81.74,0,0,0,28.84-18.32,72.64,72.64,0,0,0,19.05-38.57" transform="translate(573.17 -47.06)"/><path class="cls-4" d="M506.2,103.46s9.82-16.7,25.16-29.33a117.08,117.08,0,0,1,40.85-22,104.88,104.88,0,0,1,34.29-4.84,133.54,133.54,0,0,1,20.32,2,118.16,118.16,0,0,1,15.46,4" transform="translate(573.17 -47.06)"/><path class="cls-4" d="M498.51,89.22c-11.11,2.2-24,8.74-24,8.74-4.1-9.64-7.64-13.48-12.74-17.92a40.94,40.94,0,0,0-14.27-8.1A59.88,59.88,0,0,0,437,69.4l.92-.08c18.93-2.25,28.3-14.71,28.3-14.71v0a80.92,80.92,0,0,0-22.35-6.8c-6.79-.84-20.51-1-32.14,3.12a81.93,81.93,0,0,0-28.84,18.32c-12.77,13.41-18.1,30.56-19.47,37.15" transform="translate(573.17 -47.06)"/><path class="cls-4" d="M774.2,54.58a80.82,80.82,0,0,0-22.35-6.8c-6.79-.84-20.51-1-32.13,3.12a82,82,0,0,0-28.85,18.32,72.69,72.69,0,0,0-19,38.58" transform="translate(573.17 -47.06)"/><path class="cls-4" d="M745.47,85.22s-9.82,16.7-25.16,29.34a117.16,117.16,0,0,1-40.85,22,104.81,104.81,0,0,1-34.28,4.83,133.28,133.28,0,0,1-20.32-2,119,119,0,0,1-15.47-4" transform="translate(573.17 -47.06)"/><path class="cls-4" d="M712,134.1a80.81,80.81,0,0,0,22.34,6.81c6.79.84,20.51,1,32.14-3.13a81.81,81.81,0,0,0,28.85-18.32,72.73,72.73,0,0,0,19-38.57" transform="translate(573.17 -47.06)"/><path class="cls-4" d="M1010.65,54.58a80.82,80.82,0,0,0-22.35-6.8c-6.78-.84-20.51-1-32.13,3.12a82,82,0,0,0-28.85,18.32,72.78,72.78,0,0,0-19.05,38.58" transform="translate(573.17 -47.06)"/><path class="cls-4" d="M981.92,85.22s-9.82,16.7-25.16,29.34a117.16,117.16,0,0,1-40.85,22,104.81,104.81,0,0,1-34.28,4.83,133.28,133.28,0,0,1-20.32-2,119,119,0,0,1-15.47-4" transform="translate(573.17 -47.06)"/><path class="cls-4" d="M948.48,134.1a80.81,80.81,0,0,0,22.34,6.81c6.79.84,20.51,1,32.14-3.13a81.81,81.81,0,0,0,28.85-18.32,72.73,72.73,0,0,0,19-38.57" transform="translate(573.17 -47.06)"/><path class="cls-4" d="M977.21,103.46s9.81-16.7,25.15-29.33a117,117,0,0,1,40.86-22,104.79,104.79,0,0,1,34.28-4.84,133.54,133.54,0,0,1,20.32,2,118.06,118.06,0,0,1,15.47,4" transform="translate(573.17 -47.06)"/><path class="cls-4" d="M969.52,89.22c-11.12,2.2-24,8.74-24,8.74-4.09-9.64-7.63-13.48-12.73-17.92a40.89,40.89,0,0,0-14.28-8.1A59.88,59.88,0,0,0,908,69.4l.92-.08c18.94-2.25,28.3-14.71,28.3-14.71v0a80.82,80.82,0,0,0-22.35-6.8c-6.78-.84-20.51-1-32.13,3.12a82.09,82.09,0,0,0-28.85,18.32c-12.77,13.41-18.1,30.56-19.46,37.15" transform="translate(573.17 -47.06)"/><path class="cls-4" d="M1247.49,54.58a80.86,80.86,0,0,0-22.34-6.8c-6.79-.84-20.51-1-32.14,3.12a82.09,82.09,0,0,0-28.85,18.32,72.78,72.78,0,0,0-19.05,38.58" transform="translate(573.17 -47.06)"/><path class="cls-4" d="M1218.76,85.22s-9.81,16.7-25.15,29.34a117.2,117.2,0,0,1-40.86,22,104.78,104.78,0,0,1-34.28,4.83,133.4,133.4,0,0,1-20.32-2,119,119,0,0,1-15.47-4" transform="translate(573.17 -47.06)"/><path class="cls-4" d="M1185.32,134.1a80.86,80.86,0,0,0,22.35,6.81c6.78.84,20.51,1,32.13-3.13a81.81,81.81,0,0,0,28.85-18.32,72.73,72.73,0,0,0,19-38.57" transform="translate(573.17 -47.06)"/><path class="cls-4" d="M1483.94,54.58a80.76,80.76,0,0,0-22.34-6.8c-6.79-.84-20.51-1-32.14,3.12a82.09,82.09,0,0,0-28.85,18.32,72.78,72.78,0,0,0-19,38.58" transform="translate(573.17 -47.06)"/><path class="cls-4" d="M1455.21,85.22s-9.81,16.7-25.15,29.34a117.2,117.2,0,0,1-40.86,22,104.75,104.75,0,0,1-34.28,4.83,133.4,133.4,0,0,1-20.32-2,119,119,0,0,1-15.47-4" transform="translate(573.17 -47.06)"/><path class="cls-4" d="M1421.77,134.1a80.86,80.86,0,0,0,22.35,6.81c6.78.84,20.51,1,32.13-3.13a81.71,81.71,0,0,0,28.85-18.32,72.73,72.73,0,0,0,19.05-38.57" transform="translate(573.17 -47.06)"/><path class="cls-4" d="M1450.5,103.46s9.82-16.7,25.16-29.33a117,117,0,0,1,40.85-22,104.86,104.86,0,0,1,34.28-4.84,133.42,133.42,0,0,1,20.32,2,118.06,118.06,0,0,1,15.47,4" transform="translate(573.17 -47.06)"/><path class="cls-4" d="M1442.81,89.22c-11.11,2.2-24,8.74-24,8.74-4.1-9.64-7.64-13.48-12.74-17.92a40.94,40.94,0,0,0-14.27-8.1,59.88,59.88,0,0,0-10.57-2.54l.92-.08c18.93-2.25,28.29-14.71,28.29-14.71v0a80.76,80.76,0,0,0-22.34-6.8c-6.79-.84-20.51-1-32.14,3.12a81.93,81.93,0,0,0-28.84,18.32c-12.77,13.41-18.11,30.56-19.47,37.15" transform="translate(573.17 -47.06)"/><path class="cls-5" d="M-203.54,103.46s9.81-16.7,25.15-29.33a117,117,0,0,1,40.86-22,104.82,104.82,0,0,1,34.28-4.84,133.54,133.54,0,0,1,20.32,2,118.06,118.06,0,0,1,15.47,4" transform="translate(573.17 -47.06)"/><path class="cls-5" d="M-211.23,89.22c-11.12,2.2-24,8.74-24,8.74-4.09-9.64-7.63-13.48-12.73-17.92a40.89,40.89,0,0,0-14.28-8.1,59.88,59.88,0,0,0-10.57-2.54l.92-.08c18.94-2.25,28.3-14.71,28.3-14.71v0a80.82,80.82,0,0,0-22.35-6.8c-6.78-.84-20.51-1-32.13,3.12A82.09,82.09,0,0,0-326.9,69.22c-12.77,13.41-18.1,30.56-19.46,37.15" transform="translate(573.17 -47.06)"/><path class="cls-5" d="M-272.3,85.22s-9.81,16.7-25.16,29.34a117.08,117.08,0,0,1-40.85,22,104.78,104.78,0,0,1-34.28,4.83,133.28,133.28,0,0,1-20.32-2,119,119,0,0,1-15.47-4" transform="translate(573.17 -47.06)"/><path class="cls-5" d="M-35.85,85.22s-9.81,16.7-25.15,29.34a117.2,117.2,0,0,1-40.86,22,104.78,104.78,0,0,1-34.28,4.83,133.28,133.28,0,0,1-20.32-2,119,119,0,0,1-15.47-4" transform="translate(573.17 -47.06)"/><path class="cls-5" d="M269.75,103.46s9.82-16.7,25.16-29.33a117,117,0,0,1,40.85-22A104.86,104.86,0,0,1,370,47.32a133.42,133.42,0,0,1,20.32,2,118.06,118.06,0,0,1,15.47,4" transform="translate(573.17 -47.06)"/><path class="cls-5" d="M262.06,89.22c-11.11,2.2-24,8.74-24,8.74C234,88.32,230.45,84.48,225.35,80a40.94,40.94,0,0,0-14.27-8.1,59.88,59.88,0,0,0-10.57-2.54l.92-.08c18.93-2.25,28.29-14.71,28.29-14.71v0a80.76,80.76,0,0,0-22.34-6.8c-6.79-.84-20.51-1-32.14,3.12A81.93,81.93,0,0,0,146.4,69.22c-12.77,13.41-18.1,30.56-19.47,37.15" transform="translate(573.17 -47.06)"/><path class="cls-5" d="M201,85.22s-9.82,16.7-25.16,29.34a117.25,117.25,0,0,1-40.85,22,104.83,104.83,0,0,1-34.29,4.83,133.4,133.4,0,0,1-20.32-2,119,119,0,0,1-15.47-4" transform="translate(573.17 -47.06)"/><path class="cls-5" d="M437.45,85.22s-9.82,16.7-25.16,29.34a117.25,117.25,0,0,1-40.85,22,104.83,104.83,0,0,1-34.29,4.83,133.4,133.4,0,0,1-20.32-2,119,119,0,0,1-15.47-4" transform="translate(573.17 -47.06)"/><path class="cls-5" d="M740.76,103.46s9.81-16.7,25.15-29.33a117,117,0,0,1,40.86-22,104.79,104.79,0,0,1,34.28-4.84,133.54,133.54,0,0,1,20.32,2,118.06,118.06,0,0,1,15.47,4" transform="translate(573.17 -47.06)"/><path class="cls-5" d="M733.07,89.22c-11.12,2.2-24,8.74-24,8.74C705,88.32,701.46,84.48,696.36,80a40.89,40.89,0,0,0-14.28-8.1,59.88,59.88,0,0,0-10.57-2.54l.92-.08c18.94-2.25,28.3-14.71,28.3-14.71v0a80.82,80.82,0,0,0-22.35-6.8c-6.78-.84-20.51-1-32.13,3.12A82.09,82.09,0,0,0,617.4,69.22c-12.77,13.41-18.1,30.56-19.46,37.15" transform="translate(573.17 -47.06)"/><path class="cls-5" d="M672,85.22s-9.81,16.7-25.16,29.34a117.16,117.16,0,0,1-40.85,22,104.78,104.78,0,0,1-34.28,4.83,133.28,133.28,0,0,1-20.32-2,119,119,0,0,1-15.47-4" transform="translate(573.17 -47.06)"/><path class="cls-5" d="M908.45,85.22s-9.81,16.7-25.16,29.34a117.16,117.16,0,0,1-40.85,22,104.78,104.78,0,0,1-34.28,4.83,133.28,133.28,0,0,1-20.32-2,119,119,0,0,1-15.47-4" transform="translate(573.17 -47.06)"/><path class="cls-5" d="M1214.05,103.46s9.81-16.7,25.16-29.33a117,117,0,0,1,40.85-22,104.86,104.86,0,0,1,34.28-4.84,133.42,133.42,0,0,1,20.32,2,118.06,118.06,0,0,1,15.47,4" transform="translate(573.17 -47.06)"/><path class="cls-5" d="M1206.36,89.22c-11.11,2.2-24,8.74-24,8.74-4.1-9.64-7.64-13.48-12.74-17.92a40.94,40.94,0,0,0-14.27-8.1,59.88,59.88,0,0,0-10.57-2.54l.92-.08c18.93-2.25,28.29-14.71,28.29-14.71v0a80.76,80.76,0,0,0-22.34-6.8c-6.79-.84-20.51-1-32.14,3.12a81.93,81.93,0,0,0-28.84,18.32c-12.77,13.41-18.11,30.56-19.47,37.15" transform="translate(573.17 -47.06)"/><path class="cls-5" d="M1145.3,85.22s-9.82,16.7-25.16,29.34a117.2,117.2,0,0,1-40.86,22,104.75,104.75,0,0,1-34.28,4.83,133.4,133.4,0,0,1-20.32-2,119,119,0,0,1-15.47-4" transform="translate(573.17 -47.06)"/><path class="cls-5" d="M1381.75,85.22s-9.82,16.7-25.16,29.34a117.2,117.2,0,0,1-40.86,22,104.75,104.75,0,0,1-34.28,4.83,133.4,133.4,0,0,1-20.32-2,119,119,0,0,1-15.47-4" transform="translate(573.17 -47.06)"/><path class="cls-4" d="M-334.81,135.33a81,81,0,0,0-22.35-6.81c-6.79-.84-20.51-1-32.13,3.13A81.71,81.71,0,0,0-418.14,150a72.64,72.64,0,0,0-19.05,38.57" transform="translate(573.17 -47.06)"/><path class="cls-4" d="M-363.54,166s-9.82,16.7-25.16,29.33a117,117,0,0,1-40.85,22,104.86,104.86,0,0,1-34.28,4.84,133.42,133.42,0,0,1-20.32-2,118.06,118.06,0,0,1-15.47-4" transform="translate(573.17 -47.06)"/><path class="cls-4" d="M-397,214.85a80.76,80.76,0,0,0,22.34,6.8c6.79.84,20.51,1,32.14-3.12a81.93,81.93,0,0,0,28.84-18.32,72.75,72.75,0,0,0,19.06-38.58" transform="translate(573.17 -47.06)"/><path class="cls-4" d="M-98.36,135.33a80.86,80.86,0,0,0-22.35-6.81c-6.79-.84-20.51-1-32.13,3.13A81.71,81.71,0,0,0-181.69,150a72.64,72.64,0,0,0-19.05,38.57" transform="translate(573.17 -47.06)"/><path class="cls-4" d="M-127.09,166s-9.82,16.7-25.16,29.33a117,117,0,0,1-40.85,22,104.86,104.86,0,0,1-34.28,4.84,133.42,133.42,0,0,1-20.32-2,118.06,118.06,0,0,1-15.47-4" transform="translate(573.17 -47.06)"/><path class="cls-4" d="M-160.53,214.85a80.76,80.76,0,0,0,22.34,6.8c6.79.84,20.51,1,32.14-3.12A82.09,82.09,0,0,0-77.2,200.21a72.78,72.78,0,0,0,19.05-38.58" transform="translate(573.17 -47.06)"/><path class="cls-4" d="M-131.8,184.21s9.81-16.71,25.15-29.34a117.2,117.2,0,0,1,40.86-22,104.75,104.75,0,0,1,34.28-4.83,133.4,133.4,0,0,1,20.32,2,119,119,0,0,1,15.47,4" transform="translate(573.17 -47.06)"/><path class="cls-4" d="M-139.49,170c-11.12,2.2-24,8.74-24,8.74-4.09-9.63-7.63-13.48-12.73-17.92a41,41,0,0,0-14.28-8.1A60.78,60.78,0,0,0-201,150.14l.92-.08c18.94-2.24,28.3-14.71,28.3-14.71v0a80.86,80.86,0,0,0-22.35-6.81c-6.78-.84-20.51-1-32.13,3.13A81.81,81.81,0,0,0-255.16,150c-12.77,13.4-18.1,30.55-19.46,37.14" transform="translate(573.17 -47.06)"/><path class="cls-4" d="M138.48,135.33a80.91,80.91,0,0,0-22.34-6.81c-6.79-.84-20.51-1-32.14,3.13A81.81,81.81,0,0,0,55.15,150a72.73,72.73,0,0,0-19,38.57" transform="translate(573.17 -47.06)"/><path class="cls-4" d="M109.75,166s-9.81,16.7-25.15,29.33a117,117,0,0,1-40.86,22,104.82,104.82,0,0,1-34.28,4.84,133.54,133.54,0,0,1-20.32-2,118.06,118.06,0,0,1-15.47-4" transform="translate(573.17 -47.06)"/><path class="cls-4" d="M76.31,214.85a80.82,80.82,0,0,0,22.35,6.8c6.78.84,20.51,1,32.13-3.12a82.09,82.09,0,0,0,28.85-18.32,72.78,72.78,0,0,0,19.05-38.58" transform="translate(573.17 -47.06)"/><path class="cls-4" d="M374.93,135.33a80.91,80.91,0,0,0-22.34-6.81c-6.79-.84-20.51-1-32.14,3.13A81.81,81.81,0,0,0,291.6,150a72.73,72.73,0,0,0-19.05,38.57" transform="translate(573.17 -47.06)"/><path class="cls-4" d="M346.2,166s-9.81,16.7-25.15,29.33a117,117,0,0,1-40.86,22,104.82,104.82,0,0,1-34.28,4.84,133.54,133.54,0,0,1-20.32-2,118.06,118.06,0,0,1-15.47-4" transform="translate(573.17 -47.06)"/><path class="cls-4" d="M312.76,214.85a80.82,80.82,0,0,0,22.35,6.8c6.78.84,20.51,1,32.13-3.12a82.09,82.09,0,0,0,28.85-18.32,72.78,72.78,0,0,0,19.05-38.58" transform="translate(573.17 -47.06)"/><path class="cls-4" d="M341.49,184.21s9.82-16.71,25.16-29.34a117.16,117.16,0,0,1,40.85-22,104.81,104.81,0,0,1,34.28-4.83,133.28,133.28,0,0,1,20.32,2,119,119,0,0,1,15.47,4" transform="translate(573.17 -47.06)"/><path class="cls-4" d="M333.8,170c-11.11,2.2-24,8.74-24,8.74-4.1-9.63-7.64-13.48-12.74-17.92a41.1,41.1,0,0,0-14.27-8.1,60.78,60.78,0,0,0-10.57-2.54l.92-.08c18.93-2.24,28.29-14.71,28.29-14.71v0a80.81,80.81,0,0,0-22.34-6.81c-6.79-.84-20.51-1-32.14,3.13A81.65,81.65,0,0,0,218.14,150c-12.77,13.4-18.11,30.55-19.47,37.14" transform="translate(573.17 -47.06)"/><path class="cls-4" d="M609.49,135.33a81,81,0,0,0-22.35-6.81c-6.79-.84-20.51-1-32.14,3.13A81.65,81.65,0,0,0,526.16,150a72.64,72.64,0,0,0-19,38.57" transform="translate(573.17 -47.06)"/><path class="cls-4" d="M580.76,166s-9.82,16.7-25.16,29.33a117.08,117.08,0,0,1-40.85,22,104.88,104.88,0,0,1-34.29,4.84,133.54,133.54,0,0,1-20.32-2,118.06,118.06,0,0,1-15.47-4" transform="translate(573.17 -47.06)"/><path class="cls-4" d="M547.32,214.85a80.76,80.76,0,0,0,22.34,6.8c6.79.84,20.51,1,32.14-3.12a81.93,81.93,0,0,0,28.84-18.32,72.75,72.75,0,0,0,19.06-38.58" transform="translate(573.17 -47.06)"/><path class="cls-4" d="M845.94,135.33a81,81,0,0,0-22.35-6.81c-6.79-.84-20.51-1-32.14,3.13A81.74,81.74,0,0,0,762.61,150a72.64,72.64,0,0,0-19.05,38.57" transform="translate(573.17 -47.06)"/><path class="cls-4" d="M817.21,166s-9.82,16.7-25.16,29.33a117.08,117.08,0,0,1-40.85,22,104.88,104.88,0,0,1-34.29,4.84,133.54,133.54,0,0,1-20.32-2,118.16,118.16,0,0,1-15.46-4" transform="translate(573.17 -47.06)"/><path class="cls-4" d="M783.77,214.85a80.76,80.76,0,0,0,22.34,6.8c6.79.84,20.51,1,32.14-3.12a81.93,81.93,0,0,0,28.84-18.32,72.75,72.75,0,0,0,19.06-38.58" transform="translate(573.17 -47.06)"/><path class="cls-4" d="M812.5,184.21s9.81-16.71,25.15-29.34a117.2,117.2,0,0,1,40.86-22,104.75,104.75,0,0,1,34.28-4.83,133.4,133.4,0,0,1,20.32,2,119,119,0,0,1,15.47,4" transform="translate(573.17 -47.06)"/><path class="cls-4" d="M804.81,170c-11.12,2.2-24,8.74-24,8.74-4.09-9.63-7.63-13.48-12.73-17.92a41,41,0,0,0-14.28-8.1,60.78,60.78,0,0,0-10.57-2.54l.92-.08c18.93-2.24,28.3-14.71,28.3-14.71v0a80.86,80.86,0,0,0-22.35-6.81c-6.78-.84-20.51-1-32.13,3.13A81.81,81.81,0,0,0,689.14,150c-12.77,13.4-18.1,30.55-19.46,37.14" transform="translate(573.17 -47.06)"/><path class="cls-4" d="M1082.78,135.33a80.86,80.86,0,0,0-22.35-6.81c-6.78-.84-20.51-1-32.13,3.13A81.81,81.81,0,0,0,999.45,150a72.73,72.73,0,0,0-19.05,38.57" transform="translate(573.17 -47.06)"/><path class="cls-4" d="M1054.05,166s-9.81,16.7-25.16,29.33a116.91,116.91,0,0,1-40.85,22,104.82,104.82,0,0,1-34.28,4.84,133.42,133.42,0,0,1-20.32-2,118.06,118.06,0,0,1-15.47-4" transform="translate(573.17 -47.06)"/><path class="cls-4" d="M1020.61,214.85a80.82,80.82,0,0,0,22.35,6.8c6.78.84,20.51,1,32.13-3.12a82.09,82.09,0,0,0,28.85-18.32,72.78,72.78,0,0,0,19-38.58" transform="translate(573.17 -47.06)"/><path class="cls-4" d="M1319.23,135.33a80.86,80.86,0,0,0-22.35-6.81c-6.78-.84-20.5-1-32.13,3.13A81.81,81.81,0,0,0,1235.9,150a72.73,72.73,0,0,0-19.05,38.57" transform="translate(573.17 -47.06)"/><path class="cls-4" d="M1290.5,166s-9.81,16.7-25.15,29.33a117,117,0,0,1-40.86,22,104.82,104.82,0,0,1-34.28,4.84,133.42,133.42,0,0,1-20.32-2,118.06,118.06,0,0,1-15.47-4" transform="translate(573.17 -47.06)"/><path class="cls-4" d="M1257.06,214.85a80.82,80.82,0,0,0,22.35,6.8c6.78.84,20.51,1,32.13-3.12a82.09,82.09,0,0,0,28.85-18.32,72.78,72.78,0,0,0,19-38.58" transform="translate(573.17 -47.06)"/><path class="cls-4" d="M1285.79,184.21s9.81-16.71,25.16-29.34a117.16,117.16,0,0,1,40.85-22,104.81,104.81,0,0,1,34.28-4.83,133.28,133.28,0,0,1,20.32,2,119,119,0,0,1,15.47,4" transform="translate(573.17 -47.06)"/><path class="cls-4" d="M1278.1,170c-11.11,2.2-24,8.74-24,8.74-4.09-9.63-7.63-13.48-12.73-17.92a41.1,41.1,0,0,0-14.27-8.1,60.65,60.65,0,0,0-10.58-2.54l.92-.08c18.94-2.24,28.3-14.71,28.3-14.71v0a80.81,80.81,0,0,0-22.34-6.81c-6.79-.84-20.51-1-32.14,3.13A81.65,81.65,0,0,0,1162.44,150c-12.77,13.4-18.11,30.55-19.47,37.14" transform="translate(573.17 -47.06)"/><path class="cls-5" d="M-368.25,184.21s9.81-16.71,25.15-29.34a117.2,117.2,0,0,1,40.86-22A104.75,104.75,0,0,1-268,128.07a133.4,133.4,0,0,1,20.32,2,119,119,0,0,1,15.47,4" transform="translate(573.17 -47.06)"/><path class="cls-5" d="M-375.94,170c-11.12,2.2-24,8.74-24,8.74-4.09-9.63-7.63-13.48-12.73-17.92a41,41,0,0,0-14.28-8.1,60.78,60.78,0,0,0-10.57-2.54l.92-.08c18.94-2.24,28.3-14.71,28.3-14.71v0a80.86,80.86,0,0,0-22.35-6.81c-6.78-.84-20.51-1-32.13,3.13A81.81,81.81,0,0,0-491.61,150c-12.77,13.4-18.1,30.55-19.46,37.14" transform="translate(573.17 -47.06)"/><path class="cls-5" d="M-437,166s-9.81,16.7-25.16,29.33a117,117,0,0,1-40.85,22,104.82,104.82,0,0,1-34.28,4.84,133.42,133.42,0,0,1-20.32-2,118.06,118.06,0,0,1-15.47-4" transform="translate(573.17 -47.06)"/><path class="cls-5" d="M-200.56,166s-9.81,16.7-25.16,29.33a117,117,0,0,1-40.85,22,104.82,104.82,0,0,1-34.28,4.84,133.42,133.42,0,0,1-20.32-2,118.06,118.06,0,0,1-15.47-4" transform="translate(573.17 -47.06)"/><path class="cls-5" d="M105,184.21s9.81-16.71,25.16-29.34a117.16,117.16,0,0,1,40.85-22,104.81,104.81,0,0,1,34.28-4.83,133.28,133.28,0,0,1,20.32,2,119,119,0,0,1,15.47,4" transform="translate(573.17 -47.06)"/><path class="cls-5" d="M97.35,170c-11.11,2.2-24,8.74-24,8.74-4.1-9.63-7.64-13.48-12.74-17.92a41.1,41.1,0,0,0-14.27-8.1,60.78,60.78,0,0,0-10.57-2.54l.91-.08C55.65,147.82,65,135.35,65,135.35v0a80.81,80.81,0,0,0-22.34-6.81c-6.79-.84-20.51-1-32.14,3.13A81.65,81.65,0,0,0-18.31,150c-12.77,13.4-18.11,30.55-19.47,37.14" transform="translate(573.17 -47.06)"/><path class="cls-5" d="M36.29,166s-9.82,16.7-25.16,29.33a117,117,0,0,1-40.86,22A104.79,104.79,0,0,1-64,222.11a133.54,133.54,0,0,1-20.32-2,118.06,118.06,0,0,1-15.47-4" transform="translate(573.17 -47.06)"/><path class="cls-5" d="M272.74,166s-9.82,16.7-25.16,29.33a117,117,0,0,1-40.86,22,104.79,104.79,0,0,1-34.28,4.84,133.54,133.54,0,0,1-20.32-2,118.06,118.06,0,0,1-15.47-4" transform="translate(573.17 -47.06)"/><path class="cls-5" d="M576,184.21s9.82-16.71,25.16-29.34a117.2,117.2,0,0,1,40.86-22,104.75,104.75,0,0,1,34.28-4.83,133.4,133.4,0,0,1,20.32,2,119,119,0,0,1,15.47,4" transform="translate(573.17 -47.06)"/><path class="cls-5" d="M568.36,170c-11.12,2.2-24,8.74-24,8.74-4.09-9.63-7.64-13.48-12.73-17.92a41.14,41.14,0,0,0-14.28-8.1,60.78,60.78,0,0,0-10.57-2.54l.92-.08c18.93-2.24,28.3-14.71,28.3-14.71v0a80.86,80.86,0,0,0-22.35-6.81c-6.78-.84-20.51-1-32.13,3.13A81.81,81.81,0,0,0,452.69,150c-12.77,13.4-18.1,30.55-19.46,37.14" transform="translate(573.17 -47.06)"/><path class="cls-5" d="M507.29,166s-9.81,16.7-25.16,29.33a117,117,0,0,1-40.85,22A104.86,104.86,0,0,1,407,222.11a133.42,133.42,0,0,1-20.32-2,118.06,118.06,0,0,1-15.47-4" transform="translate(573.17 -47.06)"/><path class="cls-5" d="M743.74,166s-9.81,16.7-25.16,29.33a117,117,0,0,1-40.85,22,104.86,104.86,0,0,1-34.28,4.84,133.42,133.42,0,0,1-20.32-2,118.06,118.06,0,0,1-15.47-4" transform="translate(573.17 -47.06)"/><path class="cls-5" d="M1049.34,184.21s9.81-16.71,25.16-29.34a117.16,117.16,0,0,1,40.85-22,104.78,104.78,0,0,1,34.28-4.83,133.28,133.28,0,0,1,20.32,2,119,119,0,0,1,15.47,4" transform="translate(573.17 -47.06)"/><path class="cls-5" d="M1041.65,170c-11.11,2.2-24,8.74-24,8.74-4.09-9.63-7.63-13.48-12.73-17.92a41.1,41.1,0,0,0-14.27-8.1,60.65,60.65,0,0,0-10.58-2.54l.92-.08c18.94-2.24,28.3-14.71,28.3-14.71v0A80.81,80.81,0,0,0,987,128.52c-6.79-.84-20.51-1-32.14,3.13A81.81,81.81,0,0,0,926,150c-12.76,13.4-18.1,30.55-19.46,37.14" transform="translate(573.17 -47.06)"/><path class="cls-5" d="M980.58,166s-9.81,16.7-25.15,29.33a117,117,0,0,1-40.86,22,104.79,104.79,0,0,1-34.28,4.84,133.54,133.54,0,0,1-20.32-2,118.06,118.06,0,0,1-15.47-4" transform="translate(573.17 -47.06)"/><path class="cls-5" d="M1217,166s-9.81,16.7-25.15,29.33a117,117,0,0,1-40.86,22,104.79,104.79,0,0,1-34.28,4.84,133.54,133.54,0,0,1-20.32-2,118.06,118.06,0,0,1-15.47-4" transform="translate(573.17 -47.06)"/></g></g></g></g></svg>