<svg xmlns="http://www.w3.org/2000/svg" viewBox="0 0 436.51 436.51"><defs><style>.cls-1,.cls-3{fill:#8fa0a3;}.cls-1{opacity:0.1;}.cls-2{fill:#4d2379;}</style></defs><g id="Layer_2" data-name="Layer 2"><g id="Layer_1-2" data-name="Layer 1"><rect class="cls-1" width="436.51" height="436.51"/><path class="cls-2" d="M280.1,169.7c-2.92-6.87-5.45-9.62-9.09-12.79a29.31,29.31,0,0,0-10.19-5.79,41.27,41.27,0,0,0-8.66-1.68c14.72-1,22-10.69,22-10.69a57.55,57.55,0,0,0-16-4.86c-4.84-.6-14.64-.68-23,2.23a58.67,58.67,0,0,0-20.6,13.08A51.9,51.9,0,0,0,201,176.75a32.57,32.57,0,0,1,19.54-22.56c10.28-4.14,19.45-1.14,22.36-.18,4.24,1.38,10.7,6.62,10.7,6.62a89.43,89.43,0,0,1-18,21,83.63,83.63,0,0,1-29.18,15.69A74.71,74.71,0,0,1,182,200.72a95,95,0,0,1-14.51-1.41,84.38,84.38,0,0,1-11-2.87s7.69,7.26,10.9,9.32c1.7,1.09,4.07,2.86,6.9,4.44,4.21,2.34,7.36,3.77,7.36,3.83,1.26,11.65-5.68,20.37-6.41,21.29a32.47,32.47,0,0,1-13.2,10c-4.08,1.56-8.15,3.25-10.86,4.6A82.23,82.23,0,0,0,127.35,268a93.3,93.3,0,0,0-14.24,21.54A67.26,67.26,0,0,0,108.36,303a85.17,85.17,0,0,1,10.11-15.83,87.53,87.53,0,0,1,15.82-15.05A92.22,92.22,0,0,1,150.18,263c12.19-5.53,24.76-6.38,26.17-6.64a54.84,54.84,0,0,0,13.73-4.63A60.75,60.75,0,0,0,207.8,237a46.47,46.47,0,0,0,6.86-12.26c.85-2.19,1.2-3.5,1.2-3.5,14.7-.68,23.79-3.48,30.84-6.24,8.58-3.35,13.92-7,19.95-11.69a86.5,86.5,0,0,0,14.69-15,46.3,46.3,0,0,1,13.05-10.39,64.3,64.3,0,0,1,11.34-4.64s-2.06,10.92-8.21,19.36A56.84,56.84,0,0,1,285.29,205a54.27,54.27,0,0,1-19.8,8.67c24-1.18,33.88-13.44,40.1-21.16a49,49,0,0,0,8.6-19.51,59,59,0,0,0,1.05-9.65,53.67,53.67,0,0,0-18,.15c-7.94,1.57-17.13,6.24-17.13,6.24"/><path class="cls-3" d="M98.69,231H66.16v68.27h8.55V275.09h24a22.07,22.07,0,0,0,0-44.13Zm0,35.57h-24v-27h24a13.51,13.51,0,0,1,0,27Z"/><path class="cls-3" d="M282.22,253A22.09,22.09,0,0,0,260.16,231H227.63v68.27h8.56V275.09h20.42l18.33,24.14h10.75l-19.07-25.11A22.1,22.1,0,0,0,282.22,253Zm-46-13.51h24a13.51,13.51,0,0,1,0,27h-24Z"/><path class="cls-3" d="M360.88,299.23h9.47L341.58,231H331.34l-27.88,68.28,9.24,0,9.72-24.13h28.41Zm-35-32.7,10.61-25.47,10.81,25.47Z"/><path class="cls-3" d="M148.3,243.39V231h-8.56v17.31a86.33,86.33,0,0,1,8.19-4.7Z"/><path class="cls-3" d="M190,259.64V269.8a20.86,20.86,0,0,1-41.63,2,81.14,81.14,0,0,0-7.88,4.61,29.41,29.41,0,0,0,58.07-6.63V254.91c-1.66,1.12-3.37,2.18-5.12,3.13C192.64,258.49,191.46,259.05,190,259.64Z"/><path class="cls-3" d="M267.59,225.37l-1.89-2.45a1.84,1.84,0,0,0,1.15-.58,2,2,0,0,0-.14-2.61,2.4,2.4,0,0,0-1.61-.47h-2.63v6.14h.84V223h1.51l1.89,2.46Zm-4.28-3.05V220H265c.94,0,1.41.39,1.41,1.16s-.47,1.19-1.41,1.19Z"/><path class="cls-3" d="M271.37,222.32A6.38,6.38,0,1,0,265,228.7,6.39,6.39,0,0,0,271.37,222.32Zm-12,0A5.63,5.63,0,1,1,265,228,5.64,5.64,0,0,1,259.36,222.32Z"/></g></g></svg>